<?xml version="1.0" encoding="UTF-8"?>
<svg width="30px" height="30px" viewBox="0 0 30 30" version="1.1" xmlns="http://www.w3.org/2000/svg" xmlns:xlink="http://www.w3.org/1999/xlink">
    <!-- Generator: Sketch 52.2 (67145) - http://www.bohemiancoding.com/sketch -->
    <title>paper</title>
    <desc>Created with Sketch.</desc>
    <g id="Page-1" stroke="none" stroke-width="1" fill="none" fill-rule="evenodd">
        <g id="Artboard" transform="translate(-190.000000, -106.000000)" fill="#EEEEEE" fill-rule="nonzero" stroke="#3B5998" stroke-width="0.25">
            <g id="paper" transform="translate(191.000000, 107.000000)">
                <path d="M15.0980392,2.001 C14.0340392,2.001 13.1764706,2.782 13.1764706,3.751 L13.1764706,14.001 L12.627451,14.001 L12.627451,5.751 C12.627451,4.782 11.7698824,4.001 10.7058824,4.001 C9.64188235,4.001 8.78431373,4.782 8.78431373,5.751 L8.78431373,18.001 L6.14243137,14.798 C5.73066667,14.298 5.07843137,14.001 4.39215686,14.001 C3.17443137,14.001 2.19607843,14.907 2.19607843,16.001 C2.19607843,16.439 2.35090196,16.86 2.64188235,17.204 L9.23011765,25.204 C9.64188235,25.704 10.2941176,26.001 10.9803922,26.001 L22.7843137,26.001 C23.5738039,26.001 24.2600784,25.485 24.4138039,24.782 L25.7182745,18.454 C25.7698824,18.157 25.8039216,17.845 25.8039216,17.532 L25.8039216,9.751 C25.8039216,8.782 24.9463529,8.001 23.8823529,8.001 C22.8183529,8.001 21.9607843,8.782 21.9607843,9.751 L21.9607843,14.001 L21.4117647,14.001 L21.4117647,5.751 C21.4117647,4.782 20.5541961,4.001 19.4901961,4.001 C18.4261961,4.001 17.5686275,4.782 17.5686275,5.751 L17.5686275,14.001 L17.0196078,14.001 L17.0196078,3.751 C17.0196078,2.782 16.1620392,2.001 15.0980392,2.001 Z M15.0980392,0.001 C16.6418824,0.001 18.0660392,0.798 18.7698824,2.064 C19.0103529,2.017 19.2508235,2.001 19.4901961,2.001 C21.755451,2.001 23.6078431,3.688 23.6078431,5.751 L23.6078431,6.017 C25.9927843,5.892 28,7.564 28,9.751 L28,17.532 C28,17.97 27.9483922,18.407 27.8627451,18.829 L26.5582745,25.141 C26.2321569,26.797 24.6367059,28 22.7843137,28 L10.9803922,28 C9.60784314,28 8.28690196,27.391 7.46337255,26.406 L0.875137255,18.406 C0.30854902,17.718 0,16.859 0,16 C0,13.797 1.95560784,12 4.39215686,12 C5.11247059,12 5.98760784,12.156 6.58823529,12.531 L6.58823529,5.75 C6.58823529,3.687 8.44062745,2 10.7058824,2 C10.9463529,2 11.1868235,2.016 11.4261961,2.063 C12.1300392,0.797 13.553098,0 15.0980392,0 L15.0980392,0.001 Z" id="Shape"></path>
            </g>
        </g>
    </g>
</svg>