<?xml version="1.0" encoding="UTF-8"?>
<svg width="26px" height="24px" viewBox="0 0 26 24" version="1.1" xmlns="http://www.w3.org/2000/svg" xmlns:xlink="http://www.w3.org/1999/xlink">
    <!-- Generator: Sketch 52.2 (67145) - http://www.bohemiancoding.com/sketch -->
    <title>rock</title>
    <desc>Created with Sketch.</desc>
    <g id="Page-1" stroke="none" stroke-width="1" fill="none" fill-rule="evenodd">
        <g id="Artboard" transform="translate(-227.000000, -104.000000)" fill="#EEEEEE" fill-rule="nonzero" stroke="#3B5998" stroke-width="0.25">
            <g id="rock" transform="translate(227.000000, 105.000000)">
                <path d="M13,2 C11.891,2 11,2.891 11,4 L11,6 L10.5,6 L10.5,4.547 C10.5,3.563 9.75,2.75 8.75,2.75 C7.781,2.75 7,3.531 7,4.5 L7,11.203 L6.5,10.734 L6.5,8.046 C6.5,7.062 5.75,6.249 4.75,6.249 C3.781,6.249 3,7.03 3,7.999 L3,11.499 C3,11.983 3.203,12.437 3.547,12.78 L8.391,17.405 C8.844,17.858 9,18.374 9,18.999 C9,19.546 9.453,19.999 10,19.999 L20,19.999 C20.547,19.999 21,19.546 21,18.999 L21,18.608 C21,18.202 21.047,17.796 21.156,17.405 L22.843,10.592 C22.952,10.201 22.999,9.795 22.999,9.389 L22.999,5.545 C22.999,4.561 22.249,3.748 21.249,3.748 C20.28,3.748 19.499,4.529 19.499,5.498 L19.499,5.998 L18.999,5.998 L18.999,4.045 C18.999,3.217 18.437,2.451 17.608,2.279 C17.499,2.263 17.374,2.248 17.249,2.248 C16.28,2.248 15.499,3.029 15.499,3.998 L15.499,5.998 L14.999,5.998 L14.999,4.092 C14.999,3.045 14.249,2.123 13.202,2.014 C13.124,1.998 13.061,1.998 12.999,1.998 L13,2 Z M13,0 C13.844,0 14.656,0.266 15.328,0.781 C15.906,0.437 16.578,0.25 17.25,0.25 C18.484,0.25 19.625,0.844 20.328,1.859 C20.625,1.781 20.937,1.75 21.25,1.75 C23.344,1.75 25,3.469 25,5.547 L25,9.391 C25,9.953 24.922,10.532 24.797,11.078 L23.094,17.891 C23,18.266 23,18.625 23,19 C23,20.656 21.656,22 20,22 L10,22 C8.219,22 7,20.578 7,18.859 L2.187,14.234 C1.453,13.531 0.999,12.531 0.999,11.5 L0.999,8 C0.999,5.937 2.686,4.25 4.749,4.25 C4.843,4.25 4.921,4.25 4.999,4.266 C5.124,2.282 6.78,0.75 8.749,0.75 C9.28,0.75 9.796,0.859 10.28,1.078 C11.014,0.375 11.983,1.77635684e-15 12.999,1.77635684e-15 L13,0 Z" id="Shape"></path>
            </g>
        </g>
    </g>
</svg>