<?xml version="1.0" encoding="UTF-8"?>
<svg width="28px" height="29px" viewBox="0 0 28 29" version="1.1" xmlns="http://www.w3.org/2000/svg" xmlns:xlink="http://www.w3.org/1999/xlink">
    <!-- Generator: Sketch 52.2 (67145) - http://www.bohemiancoding.com/sketch -->
    <title>scissors</title>
    <desc>Created with Sketch.</desc>
    <g id="Page-1" stroke="none" stroke-width="1" fill="none" fill-rule="evenodd">
        <g id="Artboard" transform="translate(-209.000000, -75.000000)" fill="#EEEEEE" fill-rule="nonzero" stroke="#3B5998" stroke-width="0.25">
            <g id="scissors" transform="translate(223.000000, 89.500000) rotate(90.000000) translate(-223.000000, -89.500000) translate(208.500000, 75.500000)">
                <path d="M17.265,27.5 L14.499,27.5 C12.874,27.5 11.64,26.709125 10.968,25.021625 C10.734,24.459125 10.609,23.84375 10.609,23.228375 L10.609,23.140625 C9.328,22.4375 8.5,20.9615 8.5,19.34375 C8.5,19.15025 8.5,18.6755 8.578,18.5 L4.5,18.5 C2.297,18.5 0.5,16.478375 0.5,14 C0.5,11.521625 2.297,9.5 4.5,9.5 L6.266,9.5 L5.578,9.20075 C4.031,8.5505 3,6.863 3,5 C3,2.521625 4.797,0.5 7,0.5 C7.484,0.5 7.969,0.60575 8.422,0.79925 L18.234,5 L24.5,5 C26.703,5 28.5,7.021625 28.5,9.5 L28.5,21.241625 C28.5,23.316125 27.25,25.10825 25.469,25.601 L20.172,27.095 C19.234,27.35825 18.25,27.498875 17.266,27.498875 L17.265,27.5 Z M16.499,15.002375 L14.077,16.25 L11.53,17.5505 C10.905,17.866625 10.499,18.56975 10.499,19.34375 C10.499,20.433875 11.28,21.3125 12.249,21.3125 C12.499,21.3125 12.749,21.259625 12.968,21.137 L18.249,18.43025 C17.233,18.183875 16.499,17.146625 16.499,15.96875 L16.499,15.002375 Z M21.499,20.46875 C21.499,19.378625 20.718,18.5 19.749,18.5 C19.499,18.5 19.249,18.552875 19.03,18.6755 L14.499,20.996375 C13.561,21.471125 12.608,21.893 12.608,23.228375 C12.608,24.38825 13.327,25.232 14.374,25.232 C14.561,25.232 14.812,25.161125 14.968,25.073375 L20.468,22.260875 C21.093,21.94475 21.499,21.241625 21.499,20.467625 L21.499,20.46875 Z M17.874,7.25 L7.718,2.890625 C7.484,2.802875 7.249,2.75 6.999,2.75 C5.905,2.75 4.999,3.752375 4.999,5 C4.999,5.9315 5.515,6.77525 6.28,7.109375 L14.499,10.625 L14.499,11.75 L4.499,11.75 C3.39,11.75 2.499,12.752375 2.499,14 C2.499,15.247625 3.39,16.25 4.499,16.25 L12.858,16.25 L16.499,14.387 L16.499,10.90625 C16.499,10.203125 16.765,9.518 17.218,9.04325 L18.952,7.25 L17.874,7.25 Z M17.265,25.25 C18.077,25.25 18.906,25.14425 19.687,24.915875 L24.984,23.421875 C25.875,23.1755 26.5,22.278875 26.5,21.24275 L26.5,9.501125 C26.5,8.2535 25.609,7.251125 24.5,7.251125 L19.687,7.251125 L17.562,9.46625 C17.203,9.83525 17,10.362875 17,10.907375 L17,16.1105 C17,17.200625 17.797,18.008375 18.75,18.008375 C19.719,18.008375 20.5,17.042 20.5,15.96875 L20.5,12.3125 L21,12.3125 L21,15.96875 C21,16.759625 20.656,17.497625 20.109,17.972375 C21.203,18.165875 22,19.238 22,20.46875 C22,21.453125 21.484,22.366625 20.687,22.771625 L15.843,25.25 L17.265,25.25 Z" id="Shape"></path>
            </g>
        </g>
    </g>
</svg>